<?xml version="1.0" standalone="no"?>
<!DOCTYPE svg PUBLIC "-//W3C//DTD SVG 20010904//EN"
 "http://www.w3.org/TR/2001/REC-SVG-20010904/DTD/svg10.dtd">
<svg version="1.0" xmlns="http://www.w3.org/2000/svg"
 width="1024.000000pt" height="1024.000000pt" viewBox="0 0 1024.000000 1024.000000"
 preserveAspectRatio="xMidYMid meet">

<g transform="translate(0.000000,1024.000000) scale(0.100000,-0.100000)"
fill="#000000" stroke="none">
<path d="M2465 6983 c-260 -34 -495 -119 -703 -256 -543 -358 -820 -1009 -713
-1677 93 -582 535 -1095 1102 -1280 253 -83 584 -103 843 -50 463 93 854 379
1090 799 267 471 285 1056 50 1560 -24 52 -46 92 -49 89 -3 -3 -21 -83 -40
-177 l-33 -172 18 -64 c55 -191 69 -459 35 -660 -54 -325 -218 -620 -469 -843
-176 -156 -385 -262 -629 -318 -113 -25 -411 -31 -540 -9 -387 65 -732 289
-956 624 -61 90 -145 271 -175 375 -82 285 -72 627 25 903 161 455 530 790
1003 910 135 34 402 43 552 20 191 -31 375 -97 535 -194 l90 -54 125 41 124
42 -28 23 c-54 46 -196 135 -290 184 -264 135 -502 192 -792 189 -80 0 -158
-3 -175 -5z"/>
<path d="M4520 6475 l0 -175 280 0 280 0 0 -760 0 -760 205 0 205 0 0 760 0
760 275 0 275 0 0 175 0 175 -760 0 -760 0 0 -175z"/>
<path d="M6320 5715 l0 -935 200 0 200 0 0 613 0 612 43 -65 c23 -36 143 -219
266 -408 l224 -343 61 93 c34 51 154 234 266 406 l205 312 3 -610 2 -610 205
0 205 0 0 935 0 935 -167 0 c-93 0 -191 -3 -219 -6 l-50 -6 -254 -390 -253
-390 -141 216 c-78 118 -194 296 -258 395 l-116 179 -211 1 -211 2 0 -936z"/>
<path d="M8690 5715 l0 -935 210 0 210 0 0 935 0 935 -210 0 -210 0 0 -935z"/>
<path d="M3785 6506 c-270 -90 -455 -155 -464 -163 -3 -2 33 -42 79 -88 l85
-85 -233 -233 -232 -232 -160 160 -160 160 -602 -602 -602 -602 28 -58 c15
-32 48 -89 73 -127 l46 -68 528 528 529 529 166 -167 167 -166 338 341 338
342 104 -103 104 -104 6 44 c3 25 37 195 75 379 77 368 84 409 74 409 -4 -1
-133 -43 -287 -94z"/>
<path d="M3480 5565 l-205 -205 4 -592 c1 -326 5 -595 7 -597 11 -12 221 146
313 234 l103 100 -3 632 c-2 348 -6 633 -9 633 -3 0 -97 -92 -210 -205z"/>
<path d="M2758 4694 l2 -686 58 6 c76 9 206 41 278 69 l59 23 0 67 c0 37 -2
291 -3 564 l-2 497 -60 -59 -60 -60 -133 133 c-73 72 -134 132 -137 132 -3 0
-4 -309 -2 -686z"/>
<path d="M2423 5168 l-202 -203 1 -438 0 -438 27 -10 c59 -23 367 -76 378 -66
2 2 2 308 1 680 l-3 677 -202 -202z"/>
<path d="M1900 4644 l-195 -195 60 -56 c91 -83 183 -156 260 -207 l70 -46 3
175 c1 96 1 254 0 350 l-3 175 -195 -196z"/>
<path d="M8880 4461 c-148 -53 -222 -240 -150 -381 25 -50 99 -114 148 -128
94 -28 208 -10 295 46 l38 25 -3 109 -3 110 -115 0 -115 0 -3 -46 -3 -46 65 0
66 0 0 -41 c0 -36 -3 -41 -35 -55 -48 -20 -123 -18 -165 5 -71 38 -99 143 -61
227 38 83 149 111 237 60 l42 -24 31 41 c17 22 31 44 31 48 0 4 -25 20 -55 35
-75 36 -169 42 -245 15z"/>
<path d="M4540 4205 l0 -265 55 0 55 0 2 172 3 171 74 -111 c40 -62 76 -112
80 -111 3 0 39 51 78 112 l73 112 0 -172 0 -173 55 0 55 0 0 265 0 265 -57 0
-58 0 -30 -48 c-16 -26 -49 -78 -73 -116 l-45 -69 -74 117 -75 116 -59 0 -59
0 0 -265z"/>
<path d="M5381 4448 c-5 -13 -54 -130 -110 -260 -56 -130 -101 -240 -101 -243
0 -3 25 -5 56 -5 l55 0 27 60 26 61 114 -3 114 -3 22 -55 22 -55 62 -3 61 -3
-65 148 c-36 81 -88 201 -116 266 l-50 117 -54 0 c-47 0 -56 -3 -63 -22z m102
-206 l35 -82 -74 0 -73 0 34 81 c19 44 35 83 35 87 0 13 11 -8 43 -86z"/>
<path d="M5810 4205 l0 -265 55 0 55 0 0 85 0 85 50 0 49 0 58 -85 58 -84 63
-1 c34 0 62 3 62 6 0 3 -28 47 -62 96 -48 70 -59 92 -48 96 8 3 31 21 52 41
89 89 45 246 -79 280 -21 6 -100 11 -175 11 l-138 0 0 -265z m302 136 c10 -13
18 -36 18 -52 0 -57 -54 -84 -155 -77 l-50 3 -3 79 -3 79 87 -5 c76 -4 89 -8
106 -27z"/>
<path d="M6360 4205 l0 -265 55 0 55 0 0 78 c0 75 1 79 33 110 18 18 36 32 39
32 3 0 41 -49 83 -110 l78 -110 63 0 c35 0 64 3 64 8 0 4 -48 72 -106 151
l-105 144 23 26 c12 14 61 65 107 114 l86 87 -72 0 -71 0 -109 -118 -108 -118
-3 118 -3 118 -54 0 -55 0 0 -265z"/>
<path d="M6910 4205 l0 -265 200 0 200 0 0 50 0 50 -145 0 -145 0 0 60 0 60
125 0 125 0 0 50 0 50 -125 0 -125 0 0 55 0 55 140 0 140 0 0 50 0 50 -195 0
-195 0 0 -265z"/>
<path d="M7370 4420 l0 -50 85 0 85 0 0 -215 0 -215 55 0 55 0 0 215 0 215 80
0 80 0 0 50 0 50 -220 0 -220 0 0 -50z"/>
<path d="M7890 4205 l0 -265 60 0 60 0 0 265 0 265 -60 0 -60 0 0 -265z"/>
<path d="M8130 4205 l0 -266 56 3 56 3 -1 170 c-1 112 1 167 8 160 6 -6 66
-82 133 -170 l124 -160 47 0 47 0 3 263 2 262 -52 0 -53 0 -2 -165 -3 -166
-130 166 -129 165 -53 0 -53 0 0 -265z"/>
</g>
</svg>
